<svg width="25" height="25" viewBox="0 0 25 25" fill="none" xmlns="http://www.w3.org/2000/svg">
<g id="contacts">
<mask id="mask0_1154_638" style="mask-type:alpha" maskUnits="userSpaceOnUse" x="0" y="0" width="25" height="25">
<rect id="Bounding box" x="0.666504" y="0.5" width="24" height="24" fill="#D9D9D9"/>
</mask>
<g mask="url(#mask0_1154_638)">
<path id="contacts_2" d="M4.9165 22.6921V21.1921H20.4165V22.6921H4.9165ZM4.9165 3.80762V2.30762H20.4165V3.80762H4.9165ZM12.6665 13.9999C13.4293 13.9999 14.0783 13.7323 14.6135 13.1971C15.1488 12.6618 15.4165 12.0127 15.4165 11.2499C15.4165 10.487 15.1488 9.83803 14.6135 9.30287C14.0783 8.76753 13.4293 8.49987 12.6665 8.49987C11.9037 8.49987 11.2547 8.76753 10.7195 9.30287C10.1842 9.83803 9.9165 10.487 9.9165 11.2499C9.9165 12.0127 10.1842 12.6618 10.7195 13.1971C11.2547 13.7323 11.9037 13.9999 12.6665 13.9999ZM4.97425 19.9999C4.46909 19.9999 4.0415 19.8249 3.6915 19.4749C3.3415 19.1249 3.1665 18.6973 3.1665 18.1921V6.80762C3.1665 6.30245 3.3415 5.87487 3.6915 5.52487C4.0415 5.17487 4.46909 4.99987 4.97425 4.99987H20.3588C20.8639 4.99987 21.2915 5.17487 21.6415 5.52487C21.9915 5.87487 22.1665 6.30245 22.1665 6.80762V18.1921C22.1665 18.6973 21.9915 19.1249 21.6415 19.4749C21.2915 19.8249 20.8639 19.9999 20.3588 19.9999H4.97425ZM7.0705 18.4999C7.8205 17.6947 8.66792 17.0768 9.61275 16.6461C10.5576 16.2153 11.5755 15.9999 12.6665 15.9999C13.7575 15.9999 14.7754 16.2153 15.7203 16.6461C16.6651 17.0768 17.5125 17.6947 18.2625 18.4999H20.3588C20.4358 18.4999 20.5063 18.4678 20.5703 18.4036C20.6344 18.3396 20.6665 18.2691 20.6665 18.1921V6.80762C20.6665 6.73062 20.6344 6.66012 20.5703 6.59612C20.5063 6.53195 20.4358 6.49987 20.3588 6.49987H4.97425C4.89725 6.49987 4.82675 6.53195 4.76275 6.59612C4.69859 6.66012 4.6665 6.73062 4.6665 6.80762V18.1921C4.6665 18.2691 4.69859 18.3396 4.76275 18.4036C4.82675 18.4678 4.89725 18.4999 4.97425 18.4999H7.0705ZM9.3665 18.4999H15.9665C15.4832 18.1665 14.9623 17.9165 14.404 17.7499C13.8457 17.5832 13.2665 17.4999 12.6665 17.4999C12.0665 17.4999 11.4873 17.5832 10.929 17.7499C10.3707 17.9165 9.84984 18.1665 9.3665 18.4999ZM12.6665 12.4999C12.319 12.4999 12.0238 12.3785 11.781 12.1356C11.538 11.8926 11.4165 11.5974 11.4165 11.2499C11.4165 10.9025 11.538 10.6074 11.781 10.3644C12.0238 10.1214 12.319 9.99987 12.6665 9.99987C13.014 9.99987 13.3092 10.1214 13.552 10.3644C13.795 10.6074 13.9165 10.9025 13.9165 11.2499C13.9165 11.5974 13.795 11.8926 13.552 12.1356C13.3092 12.3785 13.014 12.4999 12.6665 12.4999Z" fill="#FF0000"/>
</g>
</g>
</svg>
